<mxfile host="app.diagrams.net" modified="2022-01-21T07:24:34.345Z" agent="5.0 (Windows NT 10.0; Win64; x64) AppleWebKit/537.36 (KHTML, like Gecko) Chrome/97.0.4692.71 Safari/537.36" etag="J3romDUXJLoffV32qlLF" version="16.2.1" type="github">
  <diagram id="1OWDbHYvFIavZCPe7Rbk" name="第 1 页">
    <mxGraphModel dx="1422" dy="800" grid="1" gridSize="10" guides="1" tooltips="1" connect="1" arrows="1" fold="1" page="1" pageScale="1" pageWidth="827" pageHeight="1169" math="0" shadow="0">
      <root>
        <mxCell id="0" />
        <mxCell id="1" parent="0" />
        <mxCell id="Tgaql-nbJ355yYjfxXE1-8" value="" style="rounded=1;whiteSpace=wrap;html=1;dashed=1;dashPattern=1 2;" vertex="1" parent="1">
          <mxGeometry x="70" y="290" width="350" height="250" as="geometry" />
        </mxCell>
        <mxCell id="Tgaql-nbJ355yYjfxXE1-26" style="edgeStyle=orthogonalEdgeStyle;curved=1;orthogonalLoop=1;jettySize=auto;html=1;entryX=0;entryY=0.5;entryDx=0;entryDy=0;exitX=0;exitY=0.5;exitDx=0;exitDy=0;dashed=1;" edge="1" parent="1" source="Tgaql-nbJ355yYjfxXE1-1" target="Tgaql-nbJ355yYjfxXE1-6">
          <mxGeometry relative="1" as="geometry" />
        </mxCell>
        <mxCell id="Tgaql-nbJ355yYjfxXE1-30" value="update" style="edgeLabel;html=1;align=center;verticalAlign=middle;resizable=0;points=[];" vertex="1" connectable="0" parent="Tgaql-nbJ355yYjfxXE1-26">
          <mxGeometry x="-0.163" y="3" relative="1" as="geometry">
            <mxPoint as="offset" />
          </mxGeometry>
        </mxCell>
        <mxCell id="Tgaql-nbJ355yYjfxXE1-1" value="server" style="rounded=1;whiteSpace=wrap;html=1;" vertex="1" parent="1">
          <mxGeometry x="110" y="340" width="120" height="60" as="geometry" />
        </mxCell>
        <mxCell id="Tgaql-nbJ355yYjfxXE1-17" style="edgeStyle=orthogonalEdgeStyle;rounded=0;orthogonalLoop=1;jettySize=auto;html=1;exitX=0.329;exitY=0.974;exitDx=0;exitDy=0;entryX=1;entryY=0;entryDx=0;entryDy=0;exitPerimeter=0;startArrow=none;" edge="1" parent="1" source="Tgaql-nbJ355yYjfxXE1-14" target="Tgaql-nbJ355yYjfxXE1-9">
          <mxGeometry relative="1" as="geometry" />
        </mxCell>
        <mxCell id="Tgaql-nbJ355yYjfxXE1-27" style="edgeStyle=orthogonalEdgeStyle;curved=1;orthogonalLoop=1;jettySize=auto;html=1;entryX=1;entryY=0.5;entryDx=0;entryDy=0;dashed=1;" edge="1" parent="1" source="Tgaql-nbJ355yYjfxXE1-6" target="Tgaql-nbJ355yYjfxXE1-12">
          <mxGeometry relative="1" as="geometry">
            <Array as="points">
              <mxPoint x="410" y="480" />
              <mxPoint x="410" y="380" />
            </Array>
          </mxGeometry>
        </mxCell>
        <mxCell id="Tgaql-nbJ355yYjfxXE1-31" value="update" style="edgeLabel;html=1;align=center;verticalAlign=middle;resizable=0;points=[];" vertex="1" connectable="0" parent="Tgaql-nbJ355yYjfxXE1-27">
          <mxGeometry x="-0.2378" y="16" relative="1" as="geometry">
            <mxPoint as="offset" />
          </mxGeometry>
        </mxCell>
        <mxCell id="Tgaql-nbJ355yYjfxXE1-32" value="update" style="edgeStyle=orthogonalEdgeStyle;curved=1;orthogonalLoop=1;jettySize=auto;html=1;exitX=0.25;exitY=1;exitDx=0;exitDy=0;entryX=0.248;entryY=0.034;entryDx=0;entryDy=0;entryPerimeter=0;dashed=1;" edge="1" parent="1" source="Tgaql-nbJ355yYjfxXE1-6" target="Tgaql-nbJ355yYjfxXE1-9">
          <mxGeometry relative="1" as="geometry" />
        </mxCell>
        <mxCell id="Tgaql-nbJ355yYjfxXE1-6" value="server" style="rounded=1;whiteSpace=wrap;html=1;" vertex="1" parent="1">
          <mxGeometry x="180" y="450" width="120" height="60" as="geometry" />
        </mxCell>
        <mxCell id="Tgaql-nbJ355yYjfxXE1-24" value="update" style="edgeStyle=orthogonalEdgeStyle;orthogonalLoop=1;jettySize=auto;html=1;entryX=0.5;entryY=0;entryDx=0;entryDy=0;curved=1;dashed=1;" edge="1" parent="1" source="Tgaql-nbJ355yYjfxXE1-7" target="Tgaql-nbJ355yYjfxXE1-1">
          <mxGeometry relative="1" as="geometry">
            <Array as="points">
              <mxPoint x="320" y="300" />
              <mxPoint x="170" y="300" />
            </Array>
          </mxGeometry>
        </mxCell>
        <mxCell id="Tgaql-nbJ355yYjfxXE1-7" value="server" style="rounded=1;whiteSpace=wrap;html=1;" vertex="1" parent="1">
          <mxGeometry x="260" y="340" width="120" height="60" as="geometry" />
        </mxCell>
        <mxCell id="Tgaql-nbJ355yYjfxXE1-15" style="edgeStyle=orthogonalEdgeStyle;rounded=0;orthogonalLoop=1;jettySize=auto;html=1;" edge="1" parent="1" source="Tgaql-nbJ355yYjfxXE1-9" target="Tgaql-nbJ355yYjfxXE1-6">
          <mxGeometry relative="1" as="geometry">
            <Array as="points">
              <mxPoint x="260" y="550" />
              <mxPoint x="260" y="550" />
            </Array>
          </mxGeometry>
        </mxCell>
        <mxCell id="Tgaql-nbJ355yYjfxXE1-16" value="get" style="edgeLabel;html=1;align=center;verticalAlign=middle;resizable=0;points=[];" vertex="1" connectable="0" parent="Tgaql-nbJ355yYjfxXE1-15">
          <mxGeometry x="-0.2226" y="-1" relative="1" as="geometry">
            <mxPoint as="offset" />
          </mxGeometry>
        </mxCell>
        <mxCell id="Tgaql-nbJ355yYjfxXE1-9" value="local-server" style="ellipse;whiteSpace=wrap;html=1;" vertex="1" parent="1">
          <mxGeometry x="180" y="620" width="120" height="80" as="geometry" />
        </mxCell>
        <mxCell id="Tgaql-nbJ355yYjfxXE1-10" value="data" style="ellipse;whiteSpace=wrap;html=1;" vertex="1" parent="1">
          <mxGeometry x="200" y="360" width="40" height="40" as="geometry" />
        </mxCell>
        <mxCell id="Tgaql-nbJ355yYjfxXE1-11" value="data" style="ellipse;whiteSpace=wrap;html=1;" vertex="1" parent="1">
          <mxGeometry x="270" y="470" width="40" height="40" as="geometry" />
        </mxCell>
        <mxCell id="Tgaql-nbJ355yYjfxXE1-12" value="data" style="ellipse;whiteSpace=wrap;html=1;" vertex="1" parent="1">
          <mxGeometry x="350" y="360" width="40" height="40" as="geometry" />
        </mxCell>
        <mxCell id="Tgaql-nbJ355yYjfxXE1-14" value="data" style="ellipse;whiteSpace=wrap;html=1;" vertex="1" parent="1">
          <mxGeometry x="270" y="575" width="30" height="30" as="geometry" />
        </mxCell>
        <mxCell id="Tgaql-nbJ355yYjfxXE1-20" value="" style="edgeStyle=orthogonalEdgeStyle;rounded=0;orthogonalLoop=1;jettySize=auto;html=1;entryX=0.5;entryY=0;entryDx=0;entryDy=0;endArrow=none;" edge="1" parent="1" target="Tgaql-nbJ355yYjfxXE1-14">
          <mxGeometry relative="1" as="geometry">
            <mxPoint x="285" y="510" as="sourcePoint" />
            <mxPoint x="282.42640687119706" y="631.7157287525356" as="targetPoint" />
          </mxGeometry>
        </mxCell>
        <mxCell id="Tgaql-nbJ355yYjfxXE1-22" value="update-data" style="endArrow=classic;html=1;rounded=0;entryX=1;entryY=0.25;entryDx=0;entryDy=0;" edge="1" parent="1" target="Tgaql-nbJ355yYjfxXE1-7">
          <mxGeometry width="50" height="50" relative="1" as="geometry">
            <mxPoint x="520" y="355" as="sourcePoint" />
            <mxPoint x="650" y="410" as="targetPoint" />
          </mxGeometry>
        </mxCell>
        <mxCell id="Tgaql-nbJ355yYjfxXE1-34" value="获取数据并订阅" style="text;html=1;strokeColor=none;fillColor=none;align=center;verticalAlign=middle;whiteSpace=wrap;rounded=0;dashed=1;dashPattern=1 2;" vertex="1" parent="1">
          <mxGeometry x="290" y="554.5" width="60" height="30" as="geometry" />
        </mxCell>
        <mxCell id="Tgaql-nbJ355yYjfxXE1-35" value="通过订阅关系更新分布式数据" style="text;html=1;strokeColor=none;fillColor=none;align=center;verticalAlign=middle;whiteSpace=wrap;rounded=0;dashed=1;dashPattern=1 2;" vertex="1" parent="1">
          <mxGeometry x="120" y="555" width="70" height="35" as="geometry" />
        </mxCell>
      </root>
    </mxGraphModel>
  </diagram>
</mxfile>
